<svg xmlns="http://www.w3.org/2000/svg" viewBox="0 0 32 32" fill="none">
  <rect width="32" height="32" rx="8" fill="#0f6e56"/>
  <!-- checklist lines -->
  <path d="M7 10h10M7 15h8M7 20h9" stroke="#e6f4ef" stroke-width="1.75" stroke-linecap="round"/>
  <!-- serif D mark -->
  <path
    d="M15.2 8.5h3.1c3.4 0 5.5 2.1 5.5 5.4v4.2c0 3.3-2.1 5.4-5.5 5.4h-3.1V8.5zm2.2 2.2v10.6h.9c1.9 0 3.1-1.2 3.1-3.2v-4.2c0-2-1.2-3.2-3.1-3.2h-.9z"
    fill="#ffffff"
  />
  <!-- check wedge -->
  <path d="M22.5 9.2l2.8 2.8-6.2 6.2-3.2-3.2 1.4-1.4 1.8 1.8 4.8-4.8-1.4-1.4z" fill="#b8e6d5"/>
</svg>
